<svg xmlns="http://www.w3.org/2000/svg" width="338.2316160400901" height="229.27500000000003" viewBox="0 0 270 183.02325112228002" class="css-1j8o68f">
    <g id="SvgjsG2521" transform="matrix(1.6083635592246734,0,0,1.6083635592246734,96.73703098739924,-8.224365256281878)" fill="#222831">
      <path d="M40.44 59.28 l-8.28 0 l3.84 -14.16 l2.1 -8.04 l-8.34 0 l-2.94 11.04 l-0.72 2.76 l-0.72 2.64 l-1.5 5.7 l-0.06 0.06 l-8.34 0 l0.06 -0.06 l1.5 -5.7 l0.72 -2.64 l0.72 -2.76 l2.94 -11.04 l-8.28 0 l-0.54 2.04 l-1.56 6 l-1.02 3.66 l-2.82 10.5 l-8.28 0 l2.76 -10.5 l2.58 -9.66 l2.82 -10.38 l8.34 0 l24.96 0 l8.28 0 z"></path>
    </g>
    <g id="SvgjsG2522" transform="matrix(1.3523513241016758,0,0,1.3523513241016758,31.64562766014084,91.07335787826774)" fill="#222831">
      <path d="M35.996 40 l-5.8398 0 l-1.8555 -21.27 l-7.1484 21.27 l-3.7891 0 l-7.1484 -21.27 l-1.875 21.27 l-5.8594 0 l2.3633 -28.223 l8.3594 0 l6.0156 17.715 l6.0938 -17.715 l8.3594 0 z M64.268046875 16.934 l-10.469 0 l0 6.4063 l9.2773 0 l0 5.0977 l-9.2773 0 l0 6.3867 l10.469 0 l0 5.1758 l-16.367 0 l0 -28.223 l16.367 0 l0 5.1563 z M92.441875 16.934 l-10.469 0 l0 6.4063 l9.2773 0 l0 5.0977 l-9.2773 0 l0 6.3867 l10.469 0 l0 5.1758 l-16.367 0 l0 -28.223 l16.367 0 l0 5.1563 z M110.107403125 34.8242 l8.8477 0 l0 5.1758 l-14.707 0 l0 -28.223 l5.8594 0 l0 23.047 z M150.370875 11.777000000000001 l-9.2773 14.707 l0 13.516 l-5.8789 0 l0 -13.379 l-9.3359 -14.844 l6.4844 0 l5.7617 9.6094 l5.7813 -9.6094 l6.4648 0 z"></path>
    </g>
  </svg>